<?xml version="1.0" encoding="utf-8"?>
<svg xmlns="http://www.w3.org/2000/svg" version="1.1" width="1000" height="1000">
<title>LOGO</title>
<desc>Du LOGO.</desc>
<rect width="1000" height="1000" style="fill:rgb(255,255,255);stroke-width:3;stroke:rgb(0,0,0)" />
<line x1="500.000000" y1="500.000000" x2="515.320889" y2="512.855752" stroke="BLACK" /> 
<line x1="515.320889" y1="512.855752" x2="525.320889" y2="530.176260" stroke="BLACK" /> 
<line x1="525.320889" y1="530.176260" x2="528.793852" y2="549.872415" stroke="BLACK" /> 
<line x1="528.793852" y1="549.872415" x2="525.320889" y2="569.568570" stroke="BLACK" /> 
<line x1="525.320889" y1="569.568570" x2="515.320889" y2="586.889078" stroke="BLACK" /> 
<line x1="515.320889" y1="586.889078" x2="500.000000" y2="599.744831" stroke="BLACK" /> 
<line x1="500.000000" y1="599.744831" x2="481.206148" y2="606.585234" stroke="BLACK" /> 
<line x1="481.206148" y1="606.585234" x2="461.206148" y2="606.585234" stroke="BLACK" /> 
<line x1="461.206148" y1="606.585234" x2="442.412295" y2="599.744831" stroke="BLACK" /> 
<line x1="442.412295" y1="599.744831" x2="427.091406" y2="586.889078" stroke="BLACK" /> 
<line x1="427.091406" y1="586.889078" x2="417.091406" y2="569.568570" stroke="BLACK" /> 
<line x1="417.091406" y1="569.568570" x2="413.618443" y2="549.872415" stroke="BLACK" /> 
<line x1="413.618443" y1="549.872415" x2="417.091406" y2="530.176260" stroke="BLACK" /> 
<line x1="417.091406" y1="530.176260" x2="427.091406" y2="512.855752" stroke="BLACK" /> 
<line x1="427.091406" y1="512.855752" x2="442.412295" y2="500.000000" stroke="BLACK" /> 
<line x1="442.412295" y1="500.000000" x2="461.206148" y2="493.159597" stroke="BLACK" /> 
<line x1="461.206148" y1="493.159597" x2="481.206148" y2="493.159597" stroke="BLACK" /> 
<line x1="481.206148" y1="493.159597" x2="500.000000" y2="500.000000" stroke="BLACK" /> 
<line x1="500.000000" y1="500.000000" x2="510.000000" y2="517.320508" stroke="BLACK" /> 
<line x1="510.000000" y1="517.320508" x2="513.472964" y2="537.016663" stroke="BLACK" /> 
<line x1="513.472964" y1="537.016663" x2="510.000000" y2="556.712818" stroke="BLACK" /> 
<line x1="510.000000" y1="556.712818" x2="500.000000" y2="574.033326" stroke="BLACK" /> 
<line x1="500.000000" y1="574.033326" x2="484.679111" y2="586.889078" stroke="BLACK" /> 
<line x1="484.679111" y1="586.889078" x2="465.885259" y2="593.729481" stroke="BLACK" /> 
<line x1="465.885259" y1="593.729481" x2="445.885259" y2="593.729481" stroke="BLACK" /> 
<line x1="445.885259" y1="593.729481" x2="427.091406" y2="586.889078" stroke="BLACK" /> 
<line x1="427.091406" y1="586.889078" x2="411.770517" y2="574.033326" stroke="BLACK" /> 
<line x1="411.770517" y1="574.033326" x2="401.770517" y2="556.712818" stroke="BLACK" /> 
<line x1="401.770517" y1="556.712818" x2="398.297554" y2="537.016663" stroke="BLACK" /> 
<line x1="398.297554" y1="537.016663" x2="401.770517" y2="517.320508" stroke="BLACK" /> 
<line x1="401.770517" y1="517.320508" x2="411.770517" y2="500.000000" stroke="BLACK" /> 
<line x1="411.770517" y1="500.000000" x2="427.091406" y2="487.144248" stroke="BLACK" /> 
<line x1="427.091406" y1="487.144248" x2="445.885259" y2="480.303845" stroke="BLACK" /> 
<line x1="445.885259" y1="480.303845" x2="465.885259" y2="480.303845" stroke="BLACK" /> 
<line x1="465.885259" y1="480.303845" x2="484.679111" y2="487.144248" stroke="BLACK" /> 
<line x1="484.679111" y1="487.144248" x2="500.000000" y2="500.000000" stroke="BLACK" /> 
<line x1="500.000000" y1="500.000000" x2="503.472964" y2="519.696155" stroke="BLACK" /> 
<line x1="503.472964" y1="519.696155" x2="500.000000" y2="539.392310" stroke="BLACK" /> 
<line x1="500.000000" y1="539.392310" x2="490.000000" y2="556.712818" stroke="BLACK" /> 
<line x1="490.000000" y1="556.712818" x2="474.679111" y2="569.568570" stroke="BLACK" /> 
<line x1="474.679111" y1="569.568570" x2="455.885259" y2="576.408973" stroke="BLACK" /> 
<line x1="455.885259" y1="576.408973" x2="435.885259" y2="576.408973" stroke="BLACK" /> 
<line x1="435.885259" y1="576.408973" x2="417.091406" y2="569.568570" stroke="BLACK" /> 
<line x1="417.091406" y1="569.568570" x2="401.770517" y2="556.712818" stroke="BLACK" /> 
<line x1="401.770517" y1="556.712818" x2="391.770517" y2="539.392310" stroke="BLACK" /> 
<line x1="391.770517" y1="539.392310" x2="388.297554" y2="519.696155" stroke="BLACK" /> 
<line x1="388.297554" y1="519.696155" x2="391.770517" y2="500.000000" stroke="BLACK" /> 
<line x1="391.770517" y1="500.000000" x2="401.770517" y2="482.679492" stroke="BLACK" /> 
<line x1="401.770517" y1="482.679492" x2="417.091406" y2="469.823740" stroke="BLACK" /> 
<line x1="417.091406" y1="469.823740" x2="435.885259" y2="462.983337" stroke="BLACK" /> 
<line x1="435.885259" y1="462.983337" x2="455.885259" y2="462.983337" stroke="BLACK" /> 
<line x1="455.885259" y1="462.983337" x2="474.679111" y2="469.823740" stroke="BLACK" /> 
<line x1="474.679111" y1="469.823740" x2="490.000000" y2="482.679492" stroke="BLACK" /> 
<line x1="490.000000" y1="482.679492" x2="500.000000" y2="500.000000" stroke="BLACK" /> 
<line x1="500.000000" y1="500.000000" x2="496.527036" y2="519.696155" stroke="BLACK" /> 
<line x1="496.527036" y1="519.696155" x2="486.527036" y2="537.016663" stroke="BLACK" /> 
<line x1="486.527036" y1="537.016663" x2="471.206148" y2="549.872415" stroke="BLACK" /> 
<line x1="471.206148" y1="549.872415" x2="452.412295" y2="556.712818" stroke="BLACK" /> 
<line x1="452.412295" y1="556.712818" x2="432.412295" y2="556.712818" stroke="BLACK" /> 
<line x1="432.412295" y1="556.712818" x2="413.618443" y2="549.872415" stroke="BLACK" /> 
<line x1="413.618443" y1="549.872415" x2="398.297554" y2="537.016663" stroke="BLACK" /> 
<line x1="398.297554" y1="537.016663" x2="388.297554" y2="519.696155" stroke="BLACK" /> 
<line x1="388.297554" y1="519.696155" x2="384.824590" y2="500.000000" stroke="BLACK" /> 
<line x1="384.824590" y1="500.000000" x2="388.297554" y2="480.303845" stroke="BLACK" /> 
<line x1="388.297554" y1="480.303845" x2="398.297554" y2="462.983337" stroke="BLACK" /> 
<line x1="398.297554" y1="462.983337" x2="413.618443" y2="450.127585" stroke="BLACK" /> 
<line x1="413.618443" y1="450.127585" x2="432.412295" y2="443.287182" stroke="BLACK" /> 
<line x1="432.412295" y1="443.287182" x2="452.412295" y2="443.287182" stroke="BLACK" /> 
<line x1="452.412295" y1="443.287182" x2="471.206148" y2="450.127585" stroke="BLACK" /> 
<line x1="471.206148" y1="450.127585" x2="486.527036" y2="462.983337" stroke="BLACK" /> 
<line x1="486.527036" y1="462.983337" x2="496.527036" y2="480.303845" stroke="BLACK" /> 
<line x1="496.527036" y1="480.303845" x2="500.000000" y2="500.000000" stroke="BLACK" /> 
<line x1="500.000000" y1="500.000000" x2="490.000000" y2="517.320508" stroke="BLACK" /> 
<line x1="490.000000" y1="517.320508" x2="474.679111" y2="530.176260" stroke="BLACK" /> 
<line x1="474.679111" y1="530.176260" x2="455.885259" y2="537.016663" stroke="BLACK" /> 
<line x1="455.885259" y1="537.016663" x2="435.885259" y2="537.016663" stroke="BLACK" /> 
<line x1="435.885259" y1="537.016663" x2="417.091406" y2="530.176260" stroke="BLACK" /> 
<line x1="417.091406" y1="530.176260" x2="401.770517" y2="517.320508" stroke="BLACK" /> 
<line x1="401.770517" y1="517.320508" x2="391.770517" y2="500.000000" stroke="BLACK" /> 
<line x1="391.770517" y1="500.000000" x2="388.297554" y2="480.303845" stroke="BLACK" /> 
<line x1="388.297554" y1="480.303845" x2="391.770517" y2="460.607690" stroke="BLACK" /> 
<line x1="391.770517" y1="460.607690" x2="401.770517" y2="443.287182" stroke="BLACK" /> 
<line x1="401.770517" y1="443.287182" x2="417.091406" y2="430.431430" stroke="BLACK" /> 
<line x1="417.091406" y1="430.431430" x2="435.885259" y2="423.591027" stroke="BLACK" /> 
<line x1="435.885259" y1="423.591027" x2="455.885259" y2="423.591027" stroke="BLACK" /> 
<line x1="455.885259" y1="423.591027" x2="474.679111" y2="430.431430" stroke="BLACK" /> 
<line x1="474.679111" y1="430.431430" x2="490.000000" y2="443.287182" stroke="BLACK" /> 
<line x1="490.000000" y1="443.287182" x2="500.000000" y2="460.607690" stroke="BLACK" /> 
<line x1="500.000000" y1="460.607690" x2="503.472964" y2="480.303845" stroke="BLACK" /> 
<line x1="503.472964" y1="480.303845" x2="500.000000" y2="500.000000" stroke="BLACK" /> 
<line x1="500.000000" y1="500.000000" x2="484.679111" y2="512.855752" stroke="BLACK" /> 
<line x1="484.679111" y1="512.855752" x2="465.885259" y2="519.696155" stroke="BLACK" /> 
<line x1="465.885259" y1="519.696155" x2="445.885259" y2="519.696155" stroke="BLACK" /> 
<line x1="445.885259" y1="519.696155" x2="427.091406" y2="512.855752" stroke="BLACK" /> 
<line x1="427.091406" y1="512.855752" x2="411.770517" y2="500.000000" stroke="BLACK" /> 
<line x1="411.770517" y1="500.000000" x2="401.770517" y2="482.679492" stroke="BLACK" /> 
<line x1="401.770517" y1="482.679492" x2="398.297554" y2="462.983337" stroke="BLACK" /> 
<line x1="398.297554" y1="462.983337" x2="401.770517" y2="443.287182" stroke="BLACK" /> 
<line x1="401.770517" y1="443.287182" x2="411.770517" y2="425.966674" stroke="BLACK" /> 
<line x1="411.770517" y1="425.966674" x2="427.091406" y2="413.110922" stroke="BLACK" /> 
<line x1="427.091406" y1="413.110922" x2="445.885259" y2="406.270519" stroke="BLACK" /> 
<line x1="445.885259" y1="406.270519" x2="465.885259" y2="406.270519" stroke="BLACK" /> 
<line x1="465.885259" y1="406.270519" x2="484.679111" y2="413.110922" stroke="BLACK" /> 
<line x1="484.679111" y1="413.110922" x2="500.000000" y2="425.966674" stroke="BLACK" /> 
<line x1="500.000000" y1="425.966674" x2="510.000000" y2="443.287182" stroke="BLACK" /> 
<line x1="510.000000" y1="443.287182" x2="513.472964" y2="462.983337" stroke="BLACK" /> 
<line x1="513.472964" y1="462.983337" x2="510.000000" y2="482.679492" stroke="BLACK" /> 
<line x1="510.000000" y1="482.679492" x2="500.000000" y2="500.000000" stroke="BLACK" /> 
<line x1="500.000000" y1="500.000000" x2="481.206148" y2="506.840403" stroke="BLACK" /> 
<line x1="481.206148" y1="506.840403" x2="461.206148" y2="506.840403" stroke="BLACK" /> 
<line x1="461.206148" y1="506.840403" x2="442.412295" y2="500.000000" stroke="BLACK" /> 
<line x1="442.412295" y1="500.000000" x2="427.091406" y2="487.144248" stroke="BLACK" /> 
<line x1="427.091406" y1="487.144248" x2="417.091406" y2="469.823740" stroke="BLACK" /> 
<line x1="417.091406" y1="469.823740" x2="413.618443" y2="450.127585" stroke="BLACK" /> 
<line x1="413.618443" y1="450.127585" x2="417.091406" y2="430.431430" stroke="BLACK" /> 
<line x1="417.091406" y1="430.431430" x2="427.091406" y2="413.110922" stroke="BLACK" /> 
<line x1="427.091406" y1="413.110922" x2="442.412295" y2="400.255169" stroke="BLACK" /> 
<line x1="442.412295" y1="400.255169" x2="461.206148" y2="393.414766" stroke="BLACK" /> 
<line x1="461.206148" y1="393.414766" x2="481.206148" y2="393.414766" stroke="BLACK" /> 
<line x1="481.206148" y1="393.414766" x2="500.000000" y2="400.255169" stroke="BLACK" /> 
<line x1="500.000000" y1="400.255169" x2="515.320889" y2="413.110922" stroke="BLACK" /> 
<line x1="515.320889" y1="413.110922" x2="525.320889" y2="430.431430" stroke="BLACK" /> 
<line x1="525.320889" y1="430.431430" x2="528.793852" y2="450.127585" stroke="BLACK" /> 
<line x1="528.793852" y1="450.127585" x2="525.320889" y2="469.823740" stroke="BLACK" /> 
<line x1="525.320889" y1="469.823740" x2="515.320889" y2="487.144248" stroke="BLACK" /> 
<line x1="515.320889" y1="487.144248" x2="500.000000" y2="500.000000" stroke="BLACK" /> 
<line x1="500.000000" y1="500.000000" x2="480.000000" y2="500.000000" stroke="BLACK" /> 
<line x1="480.000000" y1="500.000000" x2="461.206148" y2="493.159597" stroke="BLACK" /> 
<line x1="461.206148" y1="493.159597" x2="445.885259" y2="480.303845" stroke="BLACK" /> 
<line x1="445.885259" y1="480.303845" x2="435.885259" y2="462.983337" stroke="BLACK" /> 
<line x1="435.885259" y1="462.983337" x2="432.412295" y2="443.287182" stroke="BLACK" /> 
<line x1="432.412295" y1="443.287182" x2="435.885259" y2="423.591027" stroke="BLACK" /> 
<line x1="435.885259" y1="423.591027" x2="445.885259" y2="406.270519" stroke="BLACK" /> 
<line x1="445.885259" y1="406.270519" x2="461.206148" y2="393.414766" stroke="BLACK" /> 
<line x1="461.206148" y1="393.414766" x2="480.000000" y2="386.574364" stroke="BLACK" /> 
<line x1="480.000000" y1="386.574364" x2="500.000000" y2="386.574364" stroke="BLACK" /> 
<line x1="500.000000" y1="386.574364" x2="518.793852" y2="393.414766" stroke="BLACK" /> 
<line x1="518.793852" y1="393.414766" x2="534.114741" y2="406.270519" stroke="BLACK" /> 
<line x1="534.114741" y1="406.270519" x2="544.114741" y2="423.591027" stroke="BLACK" /> 
<line x1="544.114741" y1="423.591027" x2="547.587705" y2="443.287182" stroke="BLACK" /> 
<line x1="547.587705" y1="443.287182" x2="544.114741" y2="462.983337" stroke="BLACK" /> 
<line x1="544.114741" y1="462.983337" x2="534.114741" y2="480.303845" stroke="BLACK" /> 
<line x1="534.114741" y1="480.303845" x2="518.793852" y2="493.159597" stroke="BLACK" /> 
<line x1="518.793852" y1="493.159597" x2="500.000000" y2="500.000000" stroke="BLACK" /> 
<line x1="500.000000" y1="500.000000" x2="481.206148" y2="493.159597" stroke="BLACK" /> 
<line x1="481.206148" y1="493.159597" x2="465.885259" y2="480.303845" stroke="BLACK" /> 
<line x1="465.885259" y1="480.303845" x2="455.885259" y2="462.983337" stroke="BLACK" /> 
<line x1="455.885259" y1="462.983337" x2="452.412295" y2="443.287182" stroke="BLACK" /> 
<line x1="452.412295" y1="443.287182" x2="455.885259" y2="423.591027" stroke="BLACK" /> 
<line x1="455.885259" y1="423.591027" x2="465.885259" y2="406.270519" stroke="BLACK" /> 
<line x1="465.885259" y1="406.270519" x2="481.206148" y2="393.414766" stroke="BLACK" /> 
<line x1="481.206148" y1="393.414766" x2="500.000000" y2="386.574364" stroke="BLACK" /> 
<line x1="500.000000" y1="386.574364" x2="520.000000" y2="386.574364" stroke="BLACK" /> 
<line x1="520.000000" y1="386.574364" x2="538.793852" y2="393.414766" stroke="BLACK" /> 
<line x1="538.793852" y1="393.414766" x2="554.114741" y2="406.270519" stroke="BLACK" /> 
<line x1="554.114741" y1="406.270519" x2="564.114741" y2="423.591027" stroke="BLACK" /> 
<line x1="564.114741" y1="423.591027" x2="567.587705" y2="443.287182" stroke="BLACK" /> 
<line x1="567.587705" y1="443.287182" x2="564.114741" y2="462.983337" stroke="BLACK" /> 
<line x1="564.114741" y1="462.983337" x2="554.114741" y2="480.303845" stroke="BLACK" /> 
<line x1="554.114741" y1="480.303845" x2="538.793852" y2="493.159597" stroke="BLACK" /> 
<line x1="538.793852" y1="493.159597" x2="520.000000" y2="500.000000" stroke="BLACK" /> 
<line x1="520.000000" y1="500.000000" x2="500.000000" y2="500.000000" stroke="BLACK" /> 
<line x1="500.000000" y1="500.000000" x2="484.679111" y2="487.144248" stroke="BLACK" /> 
<line x1="484.679111" y1="487.144248" x2="474.679111" y2="469.823740" stroke="BLACK" /> 
<line x1="474.679111" y1="469.823740" x2="471.206148" y2="450.127585" stroke="BLACK" /> 
<line x1="471.206148" y1="450.127585" x2="474.679111" y2="430.431430" stroke="BLACK" /> 
<line x1="474.679111" y1="430.431430" x2="484.679111" y2="413.110922" stroke="BLACK" /> 
<line x1="484.679111" y1="413.110922" x2="500.000000" y2="400.255169" stroke="BLACK" /> 
<line x1="500.000000" y1="400.255169" x2="518.793852" y2="393.414766" stroke="BLACK" /> 
<line x1="518.793852" y1="393.414766" x2="538.793852" y2="393.414766" stroke="BLACK" /> 
<line x1="538.793852" y1="393.414766" x2="557.587705" y2="400.255169" stroke="BLACK" /> 
<line x1="557.587705" y1="400.255169" x2="572.908594" y2="413.110922" stroke="BLACK" /> 
<line x1="572.908594" y1="413.110922" x2="582.908594" y2="430.431430" stroke="BLACK" /> 
<line x1="582.908594" y1="430.431430" x2="586.381557" y2="450.127585" stroke="BLACK" /> 
<line x1="586.381557" y1="450.127585" x2="582.908594" y2="469.823740" stroke="BLACK" /> 
<line x1="582.908594" y1="469.823740" x2="572.908594" y2="487.144248" stroke="BLACK" /> 
<line x1="572.908594" y1="487.144248" x2="557.587705" y2="500.000000" stroke="BLACK" /> 
<line x1="557.587705" y1="500.000000" x2="538.793852" y2="506.840403" stroke="BLACK" /> 
<line x1="538.793852" y1="506.840403" x2="518.793852" y2="506.840403" stroke="BLACK" /> 
<line x1="518.793852" y1="506.840403" x2="500.000000" y2="500.000000" stroke="BLACK" /> 
<line x1="500.000000" y1="500.000000" x2="490.000000" y2="482.679492" stroke="BLACK" /> 
<line x1="490.000000" y1="482.679492" x2="486.527036" y2="462.983337" stroke="BLACK" /> 
<line x1="486.527036" y1="462.983337" x2="490.000000" y2="443.287182" stroke="BLACK" /> 
<line x1="490.000000" y1="443.287182" x2="500.000000" y2="425.966674" stroke="BLACK" /> 
<line x1="500.000000" y1="425.966674" x2="515.320889" y2="413.110922" stroke="BLACK" /> 
<line x1="515.320889" y1="413.110922" x2="534.114741" y2="406.270519" stroke="BLACK" /> 
<line x1="534.114741" y1="406.270519" x2="554.114741" y2="406.270519" stroke="BLACK" /> 
<line x1="554.114741" y1="406.270519" x2="572.908594" y2="413.110922" stroke="BLACK" /> 
<line x1="572.908594" y1="413.110922" x2="588.229483" y2="425.966674" stroke="BLACK" /> 
<line x1="588.229483" y1="425.966674" x2="598.229483" y2="443.287182" stroke="BLACK" /> 
<line x1="598.229483" y1="443.287182" x2="601.702446" y2="462.983337" stroke="BLACK" /> 
<line x1="601.702446" y1="462.983337" x2="598.229483" y2="482.679492" stroke="BLACK" /> 
<line x1="598.229483" y1="482.679492" x2="588.229483" y2="500.000000" stroke="BLACK" /> 
<line x1="588.229483" y1="500.000000" x2="572.908594" y2="512.855752" stroke="BLACK" /> 
<line x1="572.908594" y1="512.855752" x2="554.114741" y2="519.696155" stroke="BLACK" /> 
<line x1="554.114741" y1="519.696155" x2="534.114741" y2="519.696155" stroke="BLACK" /> 
<line x1="534.114741" y1="519.696155" x2="515.320889" y2="512.855752" stroke="BLACK" /> 
<line x1="515.320889" y1="512.855752" x2="500.000000" y2="500.000000" stroke="BLACK" /> 
<line x1="500.000000" y1="500.000000" x2="496.527036" y2="480.303845" stroke="BLACK" /> 
<line x1="496.527036" y1="480.303845" x2="500.000000" y2="460.607690" stroke="BLACK" /> 
<line x1="500.000000" y1="460.607690" x2="510.000000" y2="443.287182" stroke="BLACK" /> 
<line x1="510.000000" y1="443.287182" x2="525.320889" y2="430.431430" stroke="BLACK" /> 
<line x1="525.320889" y1="430.431430" x2="544.114741" y2="423.591027" stroke="BLACK" /> 
<line x1="544.114741" y1="423.591027" x2="564.114741" y2="423.591027" stroke="BLACK" /> 
<line x1="564.114741" y1="423.591027" x2="582.908594" y2="430.431430" stroke="BLACK" /> 
<line x1="582.908594" y1="430.431430" x2="598.229483" y2="443.287182" stroke="BLACK" /> 
<line x1="598.229483" y1="443.287182" x2="608.229483" y2="460.607690" stroke="BLACK" /> 
<line x1="608.229483" y1="460.607690" x2="611.702446" y2="480.303845" stroke="BLACK" /> 
<line x1="611.702446" y1="480.303845" x2="608.229483" y2="500.000000" stroke="BLACK" /> 
<line x1="608.229483" y1="500.000000" x2="598.229483" y2="517.320508" stroke="BLACK" /> 
<line x1="598.229483" y1="517.320508" x2="582.908594" y2="530.176260" stroke="BLACK" /> 
<line x1="582.908594" y1="530.176260" x2="564.114741" y2="537.016663" stroke="BLACK" /> 
<line x1="564.114741" y1="537.016663" x2="544.114741" y2="537.016663" stroke="BLACK" /> 
<line x1="544.114741" y1="537.016663" x2="525.320889" y2="530.176260" stroke="BLACK" /> 
<line x1="525.320889" y1="530.176260" x2="510.000000" y2="517.320508" stroke="BLACK" /> 
<line x1="510.000000" y1="517.320508" x2="500.000000" y2="500.000000" stroke="BLACK" /> 
<line x1="500.000000" y1="500.000000" x2="503.472964" y2="480.303845" stroke="BLACK" /> 
<line x1="503.472964" y1="480.303845" x2="513.472964" y2="462.983337" stroke="BLACK" /> 
<line x1="513.472964" y1="462.983337" x2="528.793852" y2="450.127585" stroke="BLACK" /> 
<line x1="528.793852" y1="450.127585" x2="547.587705" y2="443.287182" stroke="BLACK" /> 
<line x1="547.587705" y1="443.287182" x2="567.587705" y2="443.287182" stroke="BLACK" /> 
<line x1="567.587705" y1="443.287182" x2="586.381557" y2="450.127585" stroke="BLACK" /> 
<line x1="586.381557" y1="450.127585" x2="601.702446" y2="462.983337" stroke="BLACK" /> 
<line x1="601.702446" y1="462.983337" x2="611.702446" y2="480.303845" stroke="BLACK" /> 
<line x1="611.702446" y1="480.303845" x2="615.175410" y2="500.000000" stroke="BLACK" /> 
<line x1="615.175410" y1="500.000000" x2="611.702446" y2="519.696155" stroke="BLACK" /> 
<line x1="611.702446" y1="519.696155" x2="601.702446" y2="537.016663" stroke="BLACK" /> 
<line x1="601.702446" y1="537.016663" x2="586.381557" y2="549.872415" stroke="BLACK" /> 
<line x1="586.381557" y1="549.872415" x2="567.587705" y2="556.712818" stroke="BLACK" /> 
<line x1="567.587705" y1="556.712818" x2="547.587705" y2="556.712818" stroke="BLACK" /> 
<line x1="547.587705" y1="556.712818" x2="528.793852" y2="549.872415" stroke="BLACK" /> 
<line x1="528.793852" y1="549.872415" x2="513.472964" y2="537.016663" stroke="BLACK" /> 
<line x1="513.472964" y1="537.016663" x2="503.472964" y2="519.696155" stroke="BLACK" /> 
<line x1="503.472964" y1="519.696155" x2="500.000000" y2="500.000000" stroke="BLACK" /> 
<line x1="500.000000" y1="500.000000" x2="510.000000" y2="482.679492" stroke="BLACK" /> 
<line x1="510.000000" y1="482.679492" x2="525.320889" y2="469.823740" stroke="BLACK" /> 
<line x1="525.320889" y1="469.823740" x2="544.114741" y2="462.983337" stroke="BLACK" /> 
<line x1="544.114741" y1="462.983337" x2="564.114741" y2="462.983337" stroke="BLACK" /> 
<line x1="564.114741" y1="462.983337" x2="582.908594" y2="469.823740" stroke="BLACK" /> 
<line x1="582.908594" y1="469.823740" x2="598.229483" y2="482.679492" stroke="BLACK" /> 
<line x1="598.229483" y1="482.679492" x2="608.229483" y2="500.000000" stroke="BLACK" /> 
<line x1="608.229483" y1="500.000000" x2="611.702446" y2="519.696155" stroke="BLACK" /> 
<line x1="611.702446" y1="519.696155" x2="608.229483" y2="539.392310" stroke="BLACK" /> 
<line x1="608.229483" y1="539.392310" x2="598.229483" y2="556.712818" stroke="BLACK" /> 
<line x1="598.229483" y1="556.712818" x2="582.908594" y2="569.568570" stroke="BLACK" /> 
<line x1="582.908594" y1="569.568570" x2="564.114741" y2="576.408973" stroke="BLACK" /> 
<line x1="564.114741" y1="576.408973" x2="544.114741" y2="576.408973" stroke="BLACK" /> 
<line x1="544.114741" y1="576.408973" x2="525.320889" y2="569.568570" stroke="BLACK" /> 
<line x1="525.320889" y1="569.568570" x2="510.000000" y2="556.712818" stroke="BLACK" /> 
<line x1="510.000000" y1="556.712818" x2="500.000000" y2="539.392310" stroke="BLACK" /> 
<line x1="500.000000" y1="539.392310" x2="496.527036" y2="519.696155" stroke="BLACK" /> 
<line x1="496.527036" y1="519.696155" x2="500.000000" y2="500.000000" stroke="BLACK" /> 
<line x1="500.000000" y1="500.000000" x2="515.320889" y2="487.144248" stroke="BLACK" /> 
<line x1="515.320889" y1="487.144248" x2="534.114741" y2="480.303845" stroke="BLACK" /> 
<line x1="534.114741" y1="480.303845" x2="554.114741" y2="480.303845" stroke="BLACK" /> 
<line x1="554.114741" y1="480.303845" x2="572.908594" y2="487.144248" stroke="BLACK" /> 
<line x1="572.908594" y1="487.144248" x2="588.229483" y2="500.000000" stroke="BLACK" /> 
<line x1="588.229483" y1="500.000000" x2="598.229483" y2="517.320508" stroke="BLACK" /> 
<line x1="598.229483" y1="517.320508" x2="601.702446" y2="537.016663" stroke="BLACK" /> 
<line x1="601.702446" y1="537.016663" x2="598.229483" y2="556.712818" stroke="BLACK" /> 
<line x1="598.229483" y1="556.712818" x2="588.229483" y2="574.033326" stroke="BLACK" /> 
<line x1="588.229483" y1="574.033326" x2="572.908594" y2="586.889078" stroke="BLACK" /> 
<line x1="572.908594" y1="586.889078" x2="554.114741" y2="593.729481" stroke="BLACK" /> 
<line x1="554.114741" y1="593.729481" x2="534.114741" y2="593.729481" stroke="BLACK" /> 
<line x1="534.114741" y1="593.729481" x2="515.320889" y2="586.889078" stroke="BLACK" /> 
<line x1="515.320889" y1="586.889078" x2="500.000000" y2="574.033326" stroke="BLACK" /> 
<line x1="500.000000" y1="574.033326" x2="490.000000" y2="556.712818" stroke="BLACK" /> 
<line x1="490.000000" y1="556.712818" x2="486.527036" y2="537.016663" stroke="BLACK" /> 
<line x1="486.527036" y1="537.016663" x2="490.000000" y2="517.320508" stroke="BLACK" /> 
<line x1="490.000000" y1="517.320508" x2="500.000000" y2="500.000000" stroke="BLACK" /> 
<line x1="500.000000" y1="500.000000" x2="518.793852" y2="493.159597" stroke="BLACK" /> 
<line x1="518.793852" y1="493.159597" x2="538.793852" y2="493.159597" stroke="BLACK" /> 
<line x1="538.793852" y1="493.159597" x2="557.587705" y2="500.000000" stroke="BLACK" /> 
<line x1="557.587705" y1="500.000000" x2="572.908594" y2="512.855752" stroke="BLACK" /> 
<line x1="572.908594" y1="512.855752" x2="582.908594" y2="530.176260" stroke="BLACK" /> 
<line x1="582.908594" y1="530.176260" x2="586.381557" y2="549.872415" stroke="BLACK" /> 
<line x1="586.381557" y1="549.872415" x2="582.908594" y2="569.568570" stroke="BLACK" /> 
<line x1="582.908594" y1="569.568570" x2="572.908594" y2="586.889078" stroke="BLACK" /> 
<line x1="572.908594" y1="586.889078" x2="557.587705" y2="599.744831" stroke="BLACK" /> 
<line x1="557.587705" y1="599.744831" x2="538.793852" y2="606.585234" stroke="BLACK" /> 
<line x1="538.793852" y1="606.585234" x2="518.793852" y2="606.585234" stroke="BLACK" /> 
<line x1="518.793852" y1="606.585234" x2="500.000000" y2="599.744831" stroke="BLACK" /> 
<line x1="500.000000" y1="599.744831" x2="484.679111" y2="586.889078" stroke="BLACK" /> 
<line x1="484.679111" y1="586.889078" x2="474.679111" y2="569.568570" stroke="BLACK" /> 
<line x1="474.679111" y1="569.568570" x2="471.206148" y2="549.872415" stroke="BLACK" /> 
<line x1="471.206148" y1="549.872415" x2="474.679111" y2="530.176260" stroke="BLACK" /> 
<line x1="474.679111" y1="530.176260" x2="484.679111" y2="512.855752" stroke="BLACK" /> 
<line x1="484.679111" y1="512.855752" x2="500.000000" y2="500.000000" stroke="BLACK" /> 
<line x1="500.000000" y1="500.000000" x2="520.000000" y2="500.000000" stroke="BLACK" /> 
<line x1="520.000000" y1="500.000000" x2="538.793852" y2="506.840403" stroke="BLACK" /> 
<line x1="538.793852" y1="506.840403" x2="554.114741" y2="519.696155" stroke="BLACK" /> 
<line x1="554.114741" y1="519.696155" x2="564.114741" y2="537.016663" stroke="BLACK" /> 
<line x1="564.114741" y1="537.016663" x2="567.587705" y2="556.712818" stroke="BLACK" /> 
<line x1="567.587705" y1="556.712818" x2="564.114741" y2="576.408973" stroke="BLACK" /> 
<line x1="564.114741" y1="576.408973" x2="554.114741" y2="593.729481" stroke="BLACK" /> 
<line x1="554.114741" y1="593.729481" x2="538.793852" y2="606.585234" stroke="BLACK" /> 
<line x1="538.793852" y1="606.585234" x2="520.000000" y2="613.425636" stroke="BLACK" /> 
<line x1="520.000000" y1="613.425636" x2="500.000000" y2="613.425636" stroke="BLACK" /> 
<line x1="500.000000" y1="613.425636" x2="481.206148" y2="606.585234" stroke="BLACK" /> 
<line x1="481.206148" y1="606.585234" x2="465.885259" y2="593.729481" stroke="BLACK" /> 
<line x1="465.885259" y1="593.729481" x2="455.885259" y2="576.408973" stroke="BLACK" /> 
<line x1="455.885259" y1="576.408973" x2="452.412295" y2="556.712818" stroke="BLACK" /> 
<line x1="452.412295" y1="556.712818" x2="455.885259" y2="537.016663" stroke="BLACK" /> 
<line x1="455.885259" y1="537.016663" x2="465.885259" y2="519.696155" stroke="BLACK" /> 
<line x1="465.885259" y1="519.696155" x2="481.206148" y2="506.840403" stroke="BLACK" /> 
<line x1="481.206148" y1="506.840403" x2="500.000000" y2="500.000000" stroke="BLACK" /> 
<line x1="500.000000" y1="500.000000" x2="518.793852" y2="506.840403" stroke="BLACK" /> 
<line x1="518.793852" y1="506.840403" x2="534.114741" y2="519.696155" stroke="BLACK" /> 
<line x1="534.114741" y1="519.696155" x2="544.114741" y2="537.016663" stroke="BLACK" /> 
<line x1="544.114741" y1="537.016663" x2="547.587705" y2="556.712818" stroke="BLACK" /> 
<line x1="547.587705" y1="556.712818" x2="544.114741" y2="576.408973" stroke="BLACK" /> 
<line x1="544.114741" y1="576.408973" x2="534.114741" y2="593.729481" stroke="BLACK" /> 
<line x1="534.114741" y1="593.729481" x2="518.793852" y2="606.585234" stroke="BLACK" /> 
<line x1="518.793852" y1="606.585234" x2="500.000000" y2="613.425636" stroke="BLACK" /> 
<line x1="500.000000" y1="613.425636" x2="480.000000" y2="613.425636" stroke="BLACK" /> 
<line x1="480.000000" y1="613.425636" x2="461.206148" y2="606.585234" stroke="BLACK" /> 
<line x1="461.206148" y1="606.585234" x2="445.885259" y2="593.729481" stroke="BLACK" /> 
<line x1="445.885259" y1="593.729481" x2="435.885259" y2="576.408973" stroke="BLACK" /> 
<line x1="435.885259" y1="576.408973" x2="432.412295" y2="556.712818" stroke="BLACK" /> 
<line x1="432.412295" y1="556.712818" x2="435.885259" y2="537.016663" stroke="BLACK" /> 
<line x1="435.885259" y1="537.016663" x2="445.885259" y2="519.696155" stroke="BLACK" /> 
<line x1="445.885259" y1="519.696155" x2="461.206148" y2="506.840403" stroke="BLACK" /> 
<line x1="461.206148" y1="506.840403" x2="480.000000" y2="500.000000" stroke="BLACK" /> 
<line x1="480.000000" y1="500.000000" x2="500.000000" y2="500.000000" stroke="BLACK" /> 
<line x1="500.000000" y1="500.000000" x2="501.000000" y2="500.000000" stroke="BLACK" /> 
<line x1="501.000000" y1="500.000000" x2="516.320889" y2="512.855752" stroke="RED" /> 
<line x1="516.320889" y1="512.855752" x2="526.320889" y2="530.176260" stroke="RED" /> 
<line x1="526.320889" y1="530.176260" x2="529.793852" y2="549.872415" stroke="RED" /> 
<line x1="529.793852" y1="549.872415" x2="526.320889" y2="569.568570" stroke="RED" /> 
<line x1="526.320889" y1="569.568570" x2="516.320889" y2="586.889078" stroke="RED" /> 
<line x1="516.320889" y1="586.889078" x2="501.000000" y2="599.744831" stroke="RED" /> 
<line x1="501.000000" y1="599.744831" x2="482.206148" y2="606.585234" stroke="RED" /> 
<line x1="482.206148" y1="606.585234" x2="462.206148" y2="606.585234" stroke="RED" /> 
<line x1="462.206148" y1="606.585234" x2="443.412295" y2="599.744831" stroke="RED" /> 
<line x1="443.412295" y1="599.744831" x2="428.091406" y2="586.889078" stroke="RED" /> 
<line x1="428.091406" y1="586.889078" x2="418.091406" y2="569.568570" stroke="RED" /> 
<line x1="418.091406" y1="569.568570" x2="414.618443" y2="549.872415" stroke="RED" /> 
<line x1="414.618443" y1="549.872415" x2="418.091406" y2="530.176260" stroke="RED" /> 
<line x1="418.091406" y1="530.176260" x2="428.091406" y2="512.855752" stroke="RED" /> 
<line x1="428.091406" y1="512.855752" x2="443.412295" y2="500.000000" stroke="RED" /> 
<line x1="443.412295" y1="500.000000" x2="462.206148" y2="493.159597" stroke="RED" /> 
<line x1="462.206148" y1="493.159597" x2="482.206148" y2="493.159597" stroke="RED" /> 
<line x1="482.206148" y1="493.159597" x2="501.000000" y2="500.000000" stroke="RED" /> 
<line x1="501.000000" y1="500.000000" x2="511.000000" y2="517.320508" stroke="RED" /> 
<line x1="511.000000" y1="517.320508" x2="514.472964" y2="537.016663" stroke="RED" /> 
<line x1="514.472964" y1="537.016663" x2="511.000000" y2="556.712818" stroke="RED" /> 
<line x1="511.000000" y1="556.712818" x2="501.000000" y2="574.033326" stroke="RED" /> 
<line x1="501.000000" y1="574.033326" x2="485.679111" y2="586.889078" stroke="RED" /> 
<line x1="485.679111" y1="586.889078" x2="466.885259" y2="593.729481" stroke="RED" /> 
<line x1="466.885259" y1="593.729481" x2="446.885259" y2="593.729481" stroke="RED" /> 
<line x1="446.885259" y1="593.729481" x2="428.091406" y2="586.889078" stroke="RED" /> 
<line x1="428.091406" y1="586.889078" x2="412.770517" y2="574.033326" stroke="RED" /> 
<line x1="412.770517" y1="574.033326" x2="402.770517" y2="556.712818" stroke="RED" /> 
<line x1="402.770517" y1="556.712818" x2="399.297554" y2="537.016663" stroke="RED" /> 
<line x1="399.297554" y1="537.016663" x2="402.770517" y2="517.320508" stroke="RED" /> 
<line x1="402.770517" y1="517.320508" x2="412.770517" y2="500.000000" stroke="RED" /> 
<line x1="412.770517" y1="500.000000" x2="428.091406" y2="487.144248" stroke="RED" /> 
<line x1="428.091406" y1="487.144248" x2="446.885259" y2="480.303845" stroke="RED" /> 
<line x1="446.885259" y1="480.303845" x2="466.885259" y2="480.303845" stroke="RED" /> 
<line x1="466.885259" y1="480.303845" x2="485.679111" y2="487.144248" stroke="RED" /> 
<line x1="485.679111" y1="487.144248" x2="501.000000" y2="500.000000" stroke="RED" /> 
<line x1="501.000000" y1="500.000000" x2="504.472964" y2="519.696155" stroke="RED" /> 
<line x1="504.472964" y1="519.696155" x2="501.000000" y2="539.392310" stroke="RED" /> 
<line x1="501.000000" y1="539.392310" x2="491.000000" y2="556.712818" stroke="RED" /> 
<line x1="491.000000" y1="556.712818" x2="475.679111" y2="569.568570" stroke="RED" /> 
<line x1="475.679111" y1="569.568570" x2="456.885259" y2="576.408973" stroke="RED" /> 
<line x1="456.885259" y1="576.408973" x2="436.885259" y2="576.408973" stroke="RED" /> 
<line x1="436.885259" y1="576.408973" x2="418.091406" y2="569.568570" stroke="RED" /> 
<line x1="418.091406" y1="569.568570" x2="402.770517" y2="556.712818" stroke="RED" /> 
<line x1="402.770517" y1="556.712818" x2="392.770517" y2="539.392310" stroke="RED" /> 
<line x1="392.770517" y1="539.392310" x2="389.297554" y2="519.696155" stroke="RED" /> 
<line x1="389.297554" y1="519.696155" x2="392.770517" y2="500.000000" stroke="RED" /> 
<line x1="392.770517" y1="500.000000" x2="402.770517" y2="482.679492" stroke="RED" /> 
<line x1="402.770517" y1="482.679492" x2="418.091406" y2="469.823740" stroke="RED" /> 
<line x1="418.091406" y1="469.823740" x2="436.885259" y2="462.983337" stroke="RED" /> 
<line x1="436.885259" y1="462.983337" x2="456.885259" y2="462.983337" stroke="RED" /> 
<line x1="456.885259" y1="462.983337" x2="475.679111" y2="469.823740" stroke="RED" /> 
<line x1="475.679111" y1="469.823740" x2="491.000000" y2="482.679492" stroke="RED" /> 
<line x1="491.000000" y1="482.679492" x2="501.000000" y2="500.000000" stroke="RED" /> 
<line x1="501.000000" y1="500.000000" x2="497.527036" y2="519.696155" stroke="RED" /> 
<line x1="497.527036" y1="519.696155" x2="487.527036" y2="537.016663" stroke="RED" /> 
<line x1="487.527036" y1="537.016663" x2="472.206148" y2="549.872415" stroke="RED" /> 
<line x1="472.206148" y1="549.872415" x2="453.412295" y2="556.712818" stroke="RED" /> 
<line x1="453.412295" y1="556.712818" x2="433.412295" y2="556.712818" stroke="RED" /> 
<line x1="433.412295" y1="556.712818" x2="414.618443" y2="549.872415" stroke="RED" /> 
<line x1="414.618443" y1="549.872415" x2="399.297554" y2="537.016663" stroke="RED" /> 
<line x1="399.297554" y1="537.016663" x2="389.297554" y2="519.696155" stroke="RED" /> 
<line x1="389.297554" y1="519.696155" x2="385.824590" y2="500.000000" stroke="RED" /> 
<line x1="385.824590" y1="500.000000" x2="389.297554" y2="480.303845" stroke="RED" /> 
<line x1="389.297554" y1="480.303845" x2="399.297554" y2="462.983337" stroke="RED" /> 
<line x1="399.297554" y1="462.983337" x2="414.618443" y2="450.127585" stroke="RED" /> 
<line x1="414.618443" y1="450.127585" x2="433.412295" y2="443.287182" stroke="RED" /> 
<line x1="433.412295" y1="443.287182" x2="453.412295" y2="443.287182" stroke="RED" /> 
<line x1="453.412295" y1="443.287182" x2="472.206148" y2="450.127585" stroke="RED" /> 
<line x1="472.206148" y1="450.127585" x2="487.527036" y2="462.983337" stroke="RED" /> 
<line x1="487.527036" y1="462.983337" x2="497.527036" y2="480.303845" stroke="RED" /> 
<line x1="497.527036" y1="480.303845" x2="501.000000" y2="500.000000" stroke="RED" /> 
<line x1="501.000000" y1="500.000000" x2="491.000000" y2="517.320508" stroke="RED" /> 
<line x1="491.000000" y1="517.320508" x2="475.679111" y2="530.176260" stroke="RED" /> 
<line x1="475.679111" y1="530.176260" x2="456.885259" y2="537.016663" stroke="RED" /> 
<line x1="456.885259" y1="537.016663" x2="436.885259" y2="537.016663" stroke="RED" /> 
<line x1="436.885259" y1="537.016663" x2="418.091406" y2="530.176260" stroke="RED" /> 
<line x1="418.091406" y1="530.176260" x2="402.770517" y2="517.320508" stroke="RED" /> 
<line x1="402.770517" y1="517.320508" x2="392.770517" y2="500.000000" stroke="RED" /> 
<line x1="392.770517" y1="500.000000" x2="389.297554" y2="480.303845" stroke="RED" /> 
<line x1="389.297554" y1="480.303845" x2="392.770517" y2="460.607690" stroke="RED" /> 
<line x1="392.770517" y1="460.607690" x2="402.770517" y2="443.287182" stroke="RED" /> 
<line x1="402.770517" y1="443.287182" x2="418.091406" y2="430.431430" stroke="RED" /> 
<line x1="418.091406" y1="430.431430" x2="436.885259" y2="423.591027" stroke="RED" /> 
<line x1="436.885259" y1="423.591027" x2="456.885259" y2="423.591027" stroke="RED" /> 
<line x1="456.885259" y1="423.591027" x2="475.679111" y2="430.431430" stroke="RED" /> 
<line x1="475.679111" y1="430.431430" x2="491.000000" y2="443.287182" stroke="RED" /> 
<line x1="491.000000" y1="443.287182" x2="501.000000" y2="460.607690" stroke="RED" /> 
<line x1="501.000000" y1="460.607690" x2="504.472964" y2="480.303845" stroke="RED" /> 
<line x1="504.472964" y1="480.303845" x2="501.000000" y2="500.000000" stroke="RED" /> 
<line x1="501.000000" y1="500.000000" x2="485.679111" y2="512.855752" stroke="RED" /> 
<line x1="485.679111" y1="512.855752" x2="466.885259" y2="519.696155" stroke="RED" /> 
<line x1="466.885259" y1="519.696155" x2="446.885259" y2="519.696155" stroke="RED" /> 
<line x1="446.885259" y1="519.696155" x2="428.091406" y2="512.855752" stroke="RED" /> 
<line x1="428.091406" y1="512.855752" x2="412.770517" y2="500.000000" stroke="RED" /> 
<line x1="412.770517" y1="500.000000" x2="402.770517" y2="482.679492" stroke="RED" /> 
<line x1="402.770517" y1="482.679492" x2="399.297554" y2="462.983337" stroke="RED" /> 
<line x1="399.297554" y1="462.983337" x2="402.770517" y2="443.287182" stroke="RED" /> 
<line x1="402.770517" y1="443.287182" x2="412.770517" y2="425.966674" stroke="RED" /> 
<line x1="412.770517" y1="425.966674" x2="428.091406" y2="413.110922" stroke="RED" /> 
<line x1="428.091406" y1="413.110922" x2="446.885259" y2="406.270519" stroke="RED" /> 
<line x1="446.885259" y1="406.270519" x2="466.885259" y2="406.270519" stroke="RED" /> 
<line x1="466.885259" y1="406.270519" x2="485.679111" y2="413.110922" stroke="RED" /> 
<line x1="485.679111" y1="413.110922" x2="501.000000" y2="425.966674" stroke="RED" /> 
<line x1="501.000000" y1="425.966674" x2="511.000000" y2="443.287182" stroke="RED" /> 
<line x1="511.000000" y1="443.287182" x2="514.472964" y2="462.983337" stroke="RED" /> 
<line x1="514.472964" y1="462.983337" x2="511.000000" y2="482.679492" stroke="RED" /> 
<line x1="511.000000" y1="482.679492" x2="501.000000" y2="500.000000" stroke="RED" /> 
<line x1="501.000000" y1="500.000000" x2="482.206148" y2="506.840403" stroke="RED" /> 
<line x1="482.206148" y1="506.840403" x2="462.206148" y2="506.840403" stroke="RED" /> 
<line x1="462.206148" y1="506.840403" x2="443.412295" y2="500.000000" stroke="RED" /> 
<line x1="443.412295" y1="500.000000" x2="428.091406" y2="487.144248" stroke="RED" /> 
<line x1="428.091406" y1="487.144248" x2="418.091406" y2="469.823740" stroke="RED" /> 
<line x1="418.091406" y1="469.823740" x2="414.618443" y2="450.127585" stroke="RED" /> 
<line x1="414.618443" y1="450.127585" x2="418.091406" y2="430.431430" stroke="RED" /> 
<line x1="418.091406" y1="430.431430" x2="428.091406" y2="413.110922" stroke="RED" /> 
<line x1="428.091406" y1="413.110922" x2="443.412295" y2="400.255169" stroke="RED" /> 
<line x1="443.412295" y1="400.255169" x2="462.206148" y2="393.414766" stroke="RED" /> 
<line x1="462.206148" y1="393.414766" x2="482.206148" y2="393.414766" stroke="RED" /> 
<line x1="482.206148" y1="393.414766" x2="501.000000" y2="400.255169" stroke="RED" /> 
<line x1="501.000000" y1="400.255169" x2="516.320889" y2="413.110922" stroke="RED" /> 
<line x1="516.320889" y1="413.110922" x2="526.320889" y2="430.431430" stroke="RED" /> 
<line x1="526.320889" y1="430.431430" x2="529.793852" y2="450.127585" stroke="RED" /> 
<line x1="529.793852" y1="450.127585" x2="526.320889" y2="469.823740" stroke="RED" /> 
<line x1="526.320889" y1="469.823740" x2="516.320889" y2="487.144248" stroke="RED" /> 
<line x1="516.320889" y1="487.144248" x2="501.000000" y2="500.000000" stroke="RED" /> 
<line x1="501.000000" y1="500.000000" x2="481.000000" y2="500.000000" stroke="RED" /> 
<line x1="481.000000" y1="500.000000" x2="462.206148" y2="493.159597" stroke="RED" /> 
<line x1="462.206148" y1="493.159597" x2="446.885259" y2="480.303845" stroke="RED" /> 
<line x1="446.885259" y1="480.303845" x2="436.885259" y2="462.983337" stroke="RED" /> 
<line x1="436.885259" y1="462.983337" x2="433.412295" y2="443.287182" stroke="RED" /> 
<line x1="433.412295" y1="443.287182" x2="436.885259" y2="423.591027" stroke="RED" /> 
<line x1="436.885259" y1="423.591027" x2="446.885259" y2="406.270519" stroke="RED" /> 
<line x1="446.885259" y1="406.270519" x2="462.206148" y2="393.414766" stroke="RED" /> 
<line x1="462.206148" y1="393.414766" x2="481.000000" y2="386.574364" stroke="RED" /> 
<line x1="481.000000" y1="386.574364" x2="501.000000" y2="386.574364" stroke="RED" /> 
<line x1="501.000000" y1="386.574364" x2="519.793852" y2="393.414766" stroke="RED" /> 
<line x1="519.793852" y1="393.414766" x2="535.114741" y2="406.270519" stroke="RED" /> 
<line x1="535.114741" y1="406.270519" x2="545.114741" y2="423.591027" stroke="RED" /> 
<line x1="545.114741" y1="423.591027" x2="548.587705" y2="443.287182" stroke="RED" /> 
<line x1="548.587705" y1="443.287182" x2="545.114741" y2="462.983337" stroke="RED" /> 
<line x1="545.114741" y1="462.983337" x2="535.114741" y2="480.303845" stroke="RED" /> 
<line x1="535.114741" y1="480.303845" x2="519.793852" y2="493.159597" stroke="RED" /> 
<line x1="519.793852" y1="493.159597" x2="501.000000" y2="500.000000" stroke="RED" /> 
<line x1="501.000000" y1="500.000000" x2="482.206148" y2="493.159597" stroke="RED" /> 
<line x1="482.206148" y1="493.159597" x2="466.885259" y2="480.303845" stroke="RED" /> 
<line x1="466.885259" y1="480.303845" x2="456.885259" y2="462.983337" stroke="RED" /> 
<line x1="456.885259" y1="462.983337" x2="453.412295" y2="443.287182" stroke="RED" /> 
<line x1="453.412295" y1="443.287182" x2="456.885259" y2="423.591027" stroke="RED" /> 
<line x1="456.885259" y1="423.591027" x2="466.885259" y2="406.270519" stroke="RED" /> 
<line x1="466.885259" y1="406.270519" x2="482.206148" y2="393.414766" stroke="RED" /> 
<line x1="482.206148" y1="393.414766" x2="501.000000" y2="386.574364" stroke="RED" /> 
<line x1="501.000000" y1="386.574364" x2="521.000000" y2="386.574364" stroke="RED" /> 
<line x1="521.000000" y1="386.574364" x2="539.793852" y2="393.414766" stroke="RED" /> 
<line x1="539.793852" y1="393.414766" x2="555.114741" y2="406.270519" stroke="RED" /> 
<line x1="555.114741" y1="406.270519" x2="565.114741" y2="423.591027" stroke="RED" /> 
<line x1="565.114741" y1="423.591027" x2="568.587705" y2="443.287182" stroke="RED" /> 
<line x1="568.587705" y1="443.287182" x2="565.114741" y2="462.983337" stroke="RED" /> 
<line x1="565.114741" y1="462.983337" x2="555.114741" y2="480.303845" stroke="RED" /> 
<line x1="555.114741" y1="480.303845" x2="539.793852" y2="493.159597" stroke="RED" /> 
<line x1="539.793852" y1="493.159597" x2="521.000000" y2="500.000000" stroke="RED" /> 
<line x1="521.000000" y1="500.000000" x2="501.000000" y2="500.000000" stroke="RED" /> 
<line x1="501.000000" y1="500.000000" x2="485.679111" y2="487.144248" stroke="RED" /> 
<line x1="485.679111" y1="487.144248" x2="475.679111" y2="469.823740" stroke="RED" /> 
<line x1="475.679111" y1="469.823740" x2="472.206148" y2="450.127585" stroke="RED" /> 
<line x1="472.206148" y1="450.127585" x2="475.679111" y2="430.431430" stroke="RED" /> 
<line x1="475.679111" y1="430.431430" x2="485.679111" y2="413.110922" stroke="RED" /> 
<line x1="485.679111" y1="413.110922" x2="501.000000" y2="400.255169" stroke="RED" /> 
<line x1="501.000000" y1="400.255169" x2="519.793852" y2="393.414766" stroke="RED" /> 
<line x1="519.793852" y1="393.414766" x2="539.793852" y2="393.414766" stroke="RED" /> 
<line x1="539.793852" y1="393.414766" x2="558.587705" y2="400.255169" stroke="RED" /> 
<line x1="558.587705" y1="400.255169" x2="573.908594" y2="413.110922" stroke="RED" /> 
<line x1="573.908594" y1="413.110922" x2="583.908594" y2="430.431430" stroke="RED" /> 
<line x1="583.908594" y1="430.431430" x2="587.381557" y2="450.127585" stroke="RED" /> 
<line x1="587.381557" y1="450.127585" x2="583.908594" y2="469.823740" stroke="RED" /> 
<line x1="583.908594" y1="469.823740" x2="573.908594" y2="487.144248" stroke="RED" /> 
<line x1="573.908594" y1="487.144248" x2="558.587705" y2="500.000000" stroke="RED" /> 
<line x1="558.587705" y1="500.000000" x2="539.793852" y2="506.840403" stroke="RED" /> 
<line x1="539.793852" y1="506.840403" x2="519.793852" y2="506.840403" stroke="RED" /> 
<line x1="519.793852" y1="506.840403" x2="501.000000" y2="500.000000" stroke="RED" /> 
<line x1="501.000000" y1="500.000000" x2="491.000000" y2="482.679492" stroke="RED" /> 
<line x1="491.000000" y1="482.679492" x2="487.527036" y2="462.983337" stroke="RED" /> 
<line x1="487.527036" y1="462.983337" x2="491.000000" y2="443.287182" stroke="RED" /> 
<line x1="491.000000" y1="443.287182" x2="501.000000" y2="425.966674" stroke="RED" /> 
<line x1="501.000000" y1="425.966674" x2="516.320889" y2="413.110922" stroke="RED" /> 
<line x1="516.320889" y1="413.110922" x2="535.114741" y2="406.270519" stroke="RED" /> 
<line x1="535.114741" y1="406.270519" x2="555.114741" y2="406.270519" stroke="RED" /> 
<line x1="555.114741" y1="406.270519" x2="573.908594" y2="413.110922" stroke="RED" /> 
<line x1="573.908594" y1="413.110922" x2="589.229483" y2="425.966674" stroke="RED" /> 
<line x1="589.229483" y1="425.966674" x2="599.229483" y2="443.287182" stroke="RED" /> 
<line x1="599.229483" y1="443.287182" x2="602.702446" y2="462.983337" stroke="RED" /> 
<line x1="602.702446" y1="462.983337" x2="599.229483" y2="482.679492" stroke="RED" /> 
<line x1="599.229483" y1="482.679492" x2="589.229483" y2="500.000000" stroke="RED" /> 
<line x1="589.229483" y1="500.000000" x2="573.908594" y2="512.855752" stroke="RED" /> 
<line x1="573.908594" y1="512.855752" x2="555.114741" y2="519.696155" stroke="RED" /> 
<line x1="555.114741" y1="519.696155" x2="535.114741" y2="519.696155" stroke="RED" /> 
<line x1="535.114741" y1="519.696155" x2="516.320889" y2="512.855752" stroke="RED" /> 
<line x1="516.320889" y1="512.855752" x2="501.000000" y2="500.000000" stroke="RED" /> 
<line x1="501.000000" y1="500.000000" x2="497.527036" y2="480.303845" stroke="RED" /> 
<line x1="497.527036" y1="480.303845" x2="501.000000" y2="460.607690" stroke="RED" /> 
<line x1="501.000000" y1="460.607690" x2="511.000000" y2="443.287182" stroke="RED" /> 
<line x1="511.000000" y1="443.287182" x2="526.320889" y2="430.431430" stroke="RED" /> 
<line x1="526.320889" y1="430.431430" x2="545.114741" y2="423.591027" stroke="RED" /> 
<line x1="545.114741" y1="423.591027" x2="565.114741" y2="423.591027" stroke="RED" /> 
<line x1="565.114741" y1="423.591027" x2="583.908594" y2="430.431430" stroke="RED" /> 
<line x1="583.908594" y1="430.431430" x2="599.229483" y2="443.287182" stroke="RED" /> 
<line x1="599.229483" y1="443.287182" x2="609.229483" y2="460.607690" stroke="RED" /> 
<line x1="609.229483" y1="460.607690" x2="612.702446" y2="480.303845" stroke="RED" /> 
<line x1="612.702446" y1="480.303845" x2="609.229483" y2="500.000000" stroke="RED" /> 
<line x1="609.229483" y1="500.000000" x2="599.229483" y2="517.320508" stroke="RED" /> 
<line x1="599.229483" y1="517.320508" x2="583.908594" y2="530.176260" stroke="RED" /> 
<line x1="583.908594" y1="530.176260" x2="565.114741" y2="537.016663" stroke="RED" /> 
<line x1="565.114741" y1="537.016663" x2="545.114741" y2="537.016663" stroke="RED" /> 
<line x1="545.114741" y1="537.016663" x2="526.320889" y2="530.176260" stroke="RED" /> 
<line x1="526.320889" y1="530.176260" x2="511.000000" y2="517.320508" stroke="RED" /> 
<line x1="511.000000" y1="517.320508" x2="501.000000" y2="500.000000" stroke="RED" /> 
<line x1="501.000000" y1="500.000000" x2="504.472964" y2="480.303845" stroke="RED" /> 
<line x1="504.472964" y1="480.303845" x2="514.472964" y2="462.983337" stroke="RED" /> 
<line x1="514.472964" y1="462.983337" x2="529.793852" y2="450.127585" stroke="RED" /> 
<line x1="529.793852" y1="450.127585" x2="548.587705" y2="443.287182" stroke="RED" /> 
<line x1="548.587705" y1="443.287182" x2="568.587705" y2="443.287182" stroke="RED" /> 
<line x1="568.587705" y1="443.287182" x2="587.381557" y2="450.127585" stroke="RED" /> 
<line x1="587.381557" y1="450.127585" x2="602.702446" y2="462.983337" stroke="RED" /> 
<line x1="602.702446" y1="462.983337" x2="612.702446" y2="480.303845" stroke="RED" /> 
<line x1="612.702446" y1="480.303845" x2="616.175410" y2="500.000000" stroke="RED" /> 
<line x1="616.175410" y1="500.000000" x2="612.702446" y2="519.696155" stroke="RED" /> 
<line x1="612.702446" y1="519.696155" x2="602.702446" y2="537.016663" stroke="RED" /> 
<line x1="602.702446" y1="537.016663" x2="587.381557" y2="549.872415" stroke="RED" /> 
<line x1="587.381557" y1="549.872415" x2="568.587705" y2="556.712818" stroke="RED" /> 
<line x1="568.587705" y1="556.712818" x2="548.587705" y2="556.712818" stroke="RED" /> 
<line x1="548.587705" y1="556.712818" x2="529.793852" y2="549.872415" stroke="RED" /> 
<line x1="529.793852" y1="549.872415" x2="514.472964" y2="537.016663" stroke="RED" /> 
<line x1="514.472964" y1="537.016663" x2="504.472964" y2="519.696155" stroke="RED" /> 
<line x1="504.472964" y1="519.696155" x2="501.000000" y2="500.000000" stroke="RED" /> 
<line x1="501.000000" y1="500.000000" x2="511.000000" y2="482.679492" stroke="RED" /> 
<line x1="511.000000" y1="482.679492" x2="526.320889" y2="469.823740" stroke="RED" /> 
<line x1="526.320889" y1="469.823740" x2="545.114741" y2="462.983337" stroke="RED" /> 
<line x1="545.114741" y1="462.983337" x2="565.114741" y2="462.983337" stroke="RED" /> 
<line x1="565.114741" y1="462.983337" x2="583.908594" y2="469.823740" stroke="RED" /> 
<line x1="583.908594" y1="469.823740" x2="599.229483" y2="482.679492" stroke="RED" /> 
<line x1="599.229483" y1="482.679492" x2="609.229483" y2="500.000000" stroke="RED" /> 
<line x1="609.229483" y1="500.000000" x2="612.702446" y2="519.696155" stroke="RED" /> 
<line x1="612.702446" y1="519.696155" x2="609.229483" y2="539.392310" stroke="RED" /> 
<line x1="609.229483" y1="539.392310" x2="599.229483" y2="556.712818" stroke="RED" /> 
<line x1="599.229483" y1="556.712818" x2="583.908594" y2="569.568570" stroke="RED" /> 
<line x1="583.908594" y1="569.568570" x2="565.114741" y2="576.408973" stroke="RED" /> 
<line x1="565.114741" y1="576.408973" x2="545.114741" y2="576.408973" stroke="RED" /> 
<line x1="545.114741" y1="576.408973" x2="526.320889" y2="569.568570" stroke="RED" /> 
<line x1="526.320889" y1="569.568570" x2="511.000000" y2="556.712818" stroke="RED" /> 
<line x1="511.000000" y1="556.712818" x2="501.000000" y2="539.392310" stroke="RED" /> 
<line x1="501.000000" y1="539.392310" x2="497.527036" y2="519.696155" stroke="RED" /> 
<line x1="497.527036" y1="519.696155" x2="501.000000" y2="500.000000" stroke="RED" /> 
<line x1="501.000000" y1="500.000000" x2="516.320889" y2="487.144248" stroke="RED" /> 
<line x1="516.320889" y1="487.144248" x2="535.114741" y2="480.303845" stroke="RED" /> 
<line x1="535.114741" y1="480.303845" x2="555.114741" y2="480.303845" stroke="RED" /> 
<line x1="555.114741" y1="480.303845" x2="573.908594" y2="487.144248" stroke="RED" /> 
<line x1="573.908594" y1="487.144248" x2="589.229483" y2="500.000000" stroke="RED" /> 
<line x1="589.229483" y1="500.000000" x2="599.229483" y2="517.320508" stroke="RED" /> 
<line x1="599.229483" y1="517.320508" x2="602.702446" y2="537.016663" stroke="RED" /> 
<line x1="602.702446" y1="537.016663" x2="599.229483" y2="556.712818" stroke="RED" /> 
<line x1="599.229483" y1="556.712818" x2="589.229483" y2="574.033326" stroke="RED" /> 
<line x1="589.229483" y1="574.033326" x2="573.908594" y2="586.889078" stroke="RED" /> 
<line x1="573.908594" y1="586.889078" x2="555.114741" y2="593.729481" stroke="RED" /> 
<line x1="555.114741" y1="593.729481" x2="535.114741" y2="593.729481" stroke="RED" /> 
<line x1="535.114741" y1="593.729481" x2="516.320889" y2="586.889078" stroke="RED" /> 
<line x1="516.320889" y1="586.889078" x2="501.000000" y2="574.033326" stroke="RED" /> 
<line x1="501.000000" y1="574.033326" x2="491.000000" y2="556.712818" stroke="RED" /> 
<line x1="491.000000" y1="556.712818" x2="487.527036" y2="537.016663" stroke="RED" /> 
<line x1="487.527036" y1="537.016663" x2="491.000000" y2="517.320508" stroke="RED" /> 
<line x1="491.000000" y1="517.320508" x2="501.000000" y2="500.000000" stroke="RED" /> 
<line x1="501.000000" y1="500.000000" x2="519.793852" y2="493.159597" stroke="RED" /> 
<line x1="519.793852" y1="493.159597" x2="539.793852" y2="493.159597" stroke="RED" /> 
<line x1="539.793852" y1="493.159597" x2="558.587705" y2="500.000000" stroke="RED" /> 
<line x1="558.587705" y1="500.000000" x2="573.908594" y2="512.855752" stroke="RED" /> 
<line x1="573.908594" y1="512.855752" x2="583.908594" y2="530.176260" stroke="RED" /> 
<line x1="583.908594" y1="530.176260" x2="587.381557" y2="549.872415" stroke="RED" /> 
<line x1="587.381557" y1="549.872415" x2="583.908594" y2="569.568570" stroke="RED" /> 
<line x1="583.908594" y1="569.568570" x2="573.908594" y2="586.889078" stroke="RED" /> 
<line x1="573.908594" y1="586.889078" x2="558.587705" y2="599.744831" stroke="RED" /> 
<line x1="558.587705" y1="599.744831" x2="539.793852" y2="606.585234" stroke="RED" /> 
<line x1="539.793852" y1="606.585234" x2="519.793852" y2="606.585234" stroke="RED" /> 
<line x1="519.793852" y1="606.585234" x2="501.000000" y2="599.744831" stroke="RED" /> 
<line x1="501.000000" y1="599.744831" x2="485.679111" y2="586.889078" stroke="RED" /> 
<line x1="485.679111" y1="586.889078" x2="475.679111" y2="569.568570" stroke="RED" /> 
<line x1="475.679111" y1="569.568570" x2="472.206148" y2="549.872415" stroke="RED" /> 
<line x1="472.206148" y1="549.872415" x2="475.679111" y2="530.176260" stroke="RED" /> 
<line x1="475.679111" y1="530.176260" x2="485.679111" y2="512.855752" stroke="RED" /> 
<line x1="485.679111" y1="512.855752" x2="501.000000" y2="500.000000" stroke="RED" /> 
<line x1="501.000000" y1="500.000000" x2="521.000000" y2="500.000000" stroke="RED" /> 
<line x1="521.000000" y1="500.000000" x2="539.793852" y2="506.840403" stroke="RED" /> 
<line x1="539.793852" y1="506.840403" x2="555.114741" y2="519.696155" stroke="RED" /> 
<line x1="555.114741" y1="519.696155" x2="565.114741" y2="537.016663" stroke="RED" /> 
<line x1="565.114741" y1="537.016663" x2="568.587705" y2="556.712818" stroke="RED" /> 
<line x1="568.587705" y1="556.712818" x2="565.114741" y2="576.408973" stroke="RED" /> 
<line x1="565.114741" y1="576.408973" x2="555.114741" y2="593.729481" stroke="RED" /> 
<line x1="555.114741" y1="593.729481" x2="539.793852" y2="606.585234" stroke="RED" /> 
<line x1="539.793852" y1="606.585234" x2="521.000000" y2="613.425636" stroke="RED" /> 
<line x1="521.000000" y1="613.425636" x2="501.000000" y2="613.425636" stroke="RED" /> 
<line x1="501.000000" y1="613.425636" x2="482.206148" y2="606.585234" stroke="RED" /> 
<line x1="482.206148" y1="606.585234" x2="466.885259" y2="593.729481" stroke="RED" /> 
<line x1="466.885259" y1="593.729481" x2="456.885259" y2="576.408973" stroke="RED" /> 
<line x1="456.885259" y1="576.408973" x2="453.412295" y2="556.712818" stroke="RED" /> 
<line x1="453.412295" y1="556.712818" x2="456.885259" y2="537.016663" stroke="RED" /> 
<line x1="456.885259" y1="537.016663" x2="466.885259" y2="519.696155" stroke="RED" /> 
<line x1="466.885259" y1="519.696155" x2="482.206148" y2="506.840403" stroke="RED" /> 
<line x1="482.206148" y1="506.840403" x2="501.000000" y2="500.000000" stroke="RED" /> 
<line x1="501.000000" y1="500.000000" x2="519.793852" y2="506.840403" stroke="RED" /> 
<line x1="519.793852" y1="506.840403" x2="535.114741" y2="519.696155" stroke="RED" /> 
<line x1="535.114741" y1="519.696155" x2="545.114741" y2="537.016663" stroke="RED" /> 
<line x1="545.114741" y1="537.016663" x2="548.587705" y2="556.712818" stroke="RED" /> 
<line x1="548.587705" y1="556.712818" x2="545.114741" y2="576.408973" stroke="RED" /> 
<line x1="545.114741" y1="576.408973" x2="535.114741" y2="593.729481" stroke="RED" /> 
<line x1="535.114741" y1="593.729481" x2="519.793852" y2="606.585234" stroke="RED" /> 
<line x1="519.793852" y1="606.585234" x2="501.000000" y2="613.425636" stroke="RED" /> 
<line x1="501.000000" y1="613.425636" x2="481.000000" y2="613.425636" stroke="RED" /> 
<line x1="481.000000" y1="613.425636" x2="462.206148" y2="606.585234" stroke="RED" /> 
<line x1="462.206148" y1="606.585234" x2="446.885259" y2="593.729481" stroke="RED" /> 
<line x1="446.885259" y1="593.729481" x2="436.885259" y2="576.408973" stroke="RED" /> 
<line x1="436.885259" y1="576.408973" x2="433.412295" y2="556.712818" stroke="RED" /> 
<line x1="433.412295" y1="556.712818" x2="436.885259" y2="537.016663" stroke="RED" /> 
<line x1="436.885259" y1="537.016663" x2="446.885259" y2="519.696155" stroke="RED" /> 
<line x1="446.885259" y1="519.696155" x2="462.206148" y2="506.840403" stroke="RED" /> 
<line x1="462.206148" y1="506.840403" x2="481.000000" y2="500.000000" stroke="RED" /> 
<line x1="481.000000" y1="500.000000" x2="501.000000" y2="500.000000" stroke="RED" /> 
<line x1="501.000000" y1="500.000000" x2="502.000000" y2="500.000000" stroke="RED" /> 
</svg>